<svg xmlns="http://www.w3.org/2000/svg" width="50" height="50" viewBox="0 0 50 50"><path d="M217.865,212.432A5.432,5.432,0,1,1,212.432,207,5.432,5.432,0,0,1,217.865,212.432Zm0,0" transform="translate(-187.432 -187.432)" fill="#fffefe"/><path d="M161.478,139.227a5.382,5.382,0,0,0-3.084-3.084,8.991,8.991,0,0,0-3.017-.559c-1.714-.078-2.228-.1-6.567-.1s-4.854.016-6.567.095a9,9,0,0,0-3.017.56,5.384,5.384,0,0,0-3.085,3.084,8.994,8.994,0,0,0-.559,3.018c-.078,1.714-.1,2.228-.1,6.567s.017,4.853.1,6.567a8.991,8.991,0,0,0,.559,3.017,5.382,5.382,0,0,0,3.084,3.084,8.98,8.98,0,0,0,3.018.56c1.714.078,2.227.095,6.567.095s4.854-.016,6.567-.095a8.98,8.98,0,0,0,3.018-.56,5.382,5.382,0,0,0,3.084-3.084,9,9,0,0,0,.56-3.017c.078-1.714.095-2.228.095-6.567s-.016-4.854-.095-6.567A8.981,8.981,0,0,0,161.478,139.227Zm-12.669,17.93a8.345,8.345,0,1,1,8.345-8.345A8.345,8.345,0,0,1,148.809,157.157Zm8.675-15.07a1.95,1.95,0,1,1,1.95-1.95A1.95,1.95,0,0,1,157.484,142.087Zm0,0" transform="translate(-123.808 -123.812)" fill="#fffefe"/><path d="M25,0A25,25,0,1,0,50,25,25,25,0,0,0,25,0ZM39.269,30.918A10.532,10.532,0,0,1,38.6,34.4a7.34,7.34,0,0,1-4.2,4.2,10.539,10.539,0,0,1-3.484.667c-1.531.07-2.02.087-5.919.087s-4.388-.017-5.919-.087A10.539,10.539,0,0,1,15.6,38.6a7.34,7.34,0,0,1-4.2-4.2,10.53,10.53,0,0,1-.667-3.484c-.071-1.531-.087-2.02-.087-5.919s.016-4.388.087-5.919A10.533,10.533,0,0,1,11.4,15.6a7.345,7.345,0,0,1,4.2-4.2,10.542,10.542,0,0,1,3.485-.667c1.531-.07,2.02-.087,5.919-.087s4.388.017,5.919.087A10.544,10.544,0,0,1,34.4,11.4a7.342,7.342,0,0,1,4.2,4.2,10.531,10.531,0,0,1,.668,3.485c.07,1.531.086,2.02.086,5.919S39.339,29.388,39.269,30.918Zm0,0" fill="#fffefe"/></svg>